# xmcd
#
# Track frame offsets:
#	150
#	16431
#	37360
#	64268
#	78470
#	99593
#	118579
#	138880
#	158720
#	174949
#
# Disc length: 2580 seconds
#
# Revision: 1
# Processed by: cddbd v1.5.2PL0 Copyright (c) Steve Scherf et al.
# Submitted via: audiograbber 1.83.01
#
DISCID=800a120a
DTITLE=AMELIE - COMPAS D'JET VOL. 2
DYEAR=2010
DGENRE=WORLD
TTITLE0=Reste avec moi ce soir
TTITLE1=Siwo bon
TTITLE2=Jazz la monte
TTITLE3=Zouk chiré la
TTITLE4=Le conseille pa le paye
TTITLE5=Ba nou l'anmain
TTITLE6=La guadeloupe
TTITLE7=Chabine la
TTITLE8=Gwo ka la
TTITLE9=Souviens toi
EXTD=
EXTT0=
EXTT1=
EXTT2=
EXTT3=
EXTT4=
EXTT5=
EXTT6=
EXTT7=
EXTT8=
EXTT9=
PLAYORDER=
